#!OML:ASF H:\Terrain\Walking\May29\JustinRory\Justin.ASF
:FULLY-SPECIFIED
:DEGREES
395
root 7.52512 17.6305 10.1703 -177.959 8.78134 -174.712
lowerback 6.22028 -2.91522 -1.0801
upperback 1.78864 -3.68197 3.84561
thorax -1.31125 -1.76559 4.84032
lowerneck -11.2202 -7.48014 -13.4928
upperneck 12.518 -8.52525 5.59154
head 6.48373 -4.33534 3.15216
rclavicle 1.69464e-014 -1.76918e-014
rhumerus -24.7801 -41.6617 -6.72087
rradius 43.4302
rwrist -35.3316
rhand -23.7674 27.4817
rfingers 7.12502
rthumb 2.702 -2.48093
lclavicle 1.69464e-014 -1.76918e-014
lhumerus -33.162 42.2064 -5.17983
lradius 42.1587
lwrist 26.9507
lhand -6.257 40.8147
lfingers 7.12502
lthumb 19.5853 69.8482
rfemur -13.3723 3.35246 19.3722
rtibia 32.7106
rfoot -15.1069 -6.2022
rtoes 2.84495
lfemur -8.92288 11.1509 -4.37933
ltibia 43.6356
lfoot -12.6076 13.0927
ltoes -21.2962
396
root 7.47685 17.6276 10.1605 -177.796 8.76754 -174.889
lowerback 6.36046 -2.9088 -1.17016
upperback 1.49192 -3.68427 3.85928
thorax -1.68878 -1.76219 4.92523
lowerneck -12.0482 -7.19379 -14.8983
upperneck 14.0951 -8.00579 7.00854
head 7.20498 -4.0487 3.87027
rclavicle -6.34123e-014 4.77083e-014
rhumerus -25.8109 -40.6672 -6.28746
rradius 44.8484
rwrist -35.8066
rhand -23.2202 27.4833
rfingers 7.12502
rthumb 3.23046 -2.47199
lclavicle -6.34123e-014 4.77083e-014
lhumerus -34.2671 41.1724 -5.61082
lradius 43.5834
lwrist 27.6201
lhand -6.04043 41.0796
lfingers 7.12502
lthumb 19.7935 70.0918
rfemur -13.5038 3.34091 18.9799
rtibia 32.5575
rfoot -15.1576 -6.13563
rtoes 2.95493
lfemur -9.00272 11.5199 -4.89909
ltibia 42.5844
lfoot -13.2912 14.3852
ltoes -24.095
397
root 7.42503 17.629 10.1521 -177.603 8.87963 -174.993
lowerback 6.23444 -2.8108 -1.07147
upperback 1.43373 -3.55729 3.76977
thorax -1.7027 -1.70131 4.76207
lowerneck -12.8763 -6.90086 -15.6611
upperneck 14.8581 -7.53767 8.09303
head 7.61785 -3.77046 4.39871
rclavicle -3.99309e-014 -1.23246e-014
rhumerus -27.0297 -40.368 -5.90138
rradius 46.1532
rwrist -35.8731
rhand -23.1591 27.153
rfingers 7.12502
rthumb 3.28941 -2.80137
lclavicle -3.99309e-014 -1.23246e-014
lhumerus -35.0948 41.0155 -5.98852
lradius 44.8462
lwrist 27.9149
lhand -5.72233 41.3118
lfingers 7.12502
lthumb 20.0993 70.2921
rfemur -13.6801 3.45569 18.6458
rtibia 32.3651
rfoot -15.152 -6.06634
rtoes 3.36847
lfemur -9.07123 11.933 -5.37602
ltibia 41.9251
lfoot -13.958 15.4313
ltoes -25.1407
398
root 7.37366 17.6381 10.14 -177.481 8.8038 -174.689
lowerback 6.0528 -2.69771 -0.511337
upperback 1.5586 -3.36629 3.74862
thorax -1.52455 -1.60611 4.39649
lowerneck -13.0012 -6.80789 -15.544
upperneck 14.6094 -7.44018 8.22237
head 7.54449 -3.70333 4.43206
rclavicle -6.23687e-015 2.82274e-014
rhumerus -28.4862 -40.7337 -5.27919
rradius 47.2699
rwrist -35.5304
rhand -22.6046 27.0618
rfingers 7.12502
rthumb 3.82491 -2.88358
lclavicle -6.23687e-015 2.82274e-014
lhumerus -35.5516 41.2683 -5.93774
lradius 46.0885
lwrist 28.0884
lhand -5.22068 41.4936
lfingers 7.12502
lthumb 20.5814 70.4225
rfemur -13.6201 3.4487 18.7816
rtibia 32.1371
rfoot -14.9423 -6.09574
rtoes 3.49692
lfemur -8.96727 12.2416 -5.32179
ltibia 41.6337
lfoot -14.6404 15.6863
ltoes -24.2533
399
root 7.31782 17.6523 10.1291 -177.472 8.47984 -174.692
lowerback 5.91006 -2.70361 -0.266182
upperback 1.71387 -3.36092 3.68489
thorax -1.30395 -1.60503 4.17858
lowerneck -12.7601 -6.88014 -15.1264
upperneck 14.275 -7.60614 7.94616
head 7.38482 -3.78483 4.25432
rclavicle -1.2598e-014 -1.03368e-014
rhumerus -29.6378 -41.087 -4.92279
rradius 48.2778
rwrist -35.3998
rhand -21.8722 27.2513
rfingers 7.12502
rthumb 4.53219 -2.68019
lclavicle -1.2598e-014 -1.03368e-014
lhumerus -36.0557 41.3024 -5.79367
lradius 47.2407
lwrist 28.4614
lhand -5.48149 41.6828
lfingers 7.12502
lthumb 20.3307 70.6386
rfemur -13.4052 3.22826 18.5711
rtibia 31.8509
rfoot -14.7093 -6.15672
rtoes 3.69329
lfemur -8.91565 12.2547 -5.61868
ltibia 41.5907
lfoot -14.8844 15.8019
ltoes -23.137
400
root 7.26075 17.6644 10.1255 -177.413 8.3374 -174.896
lowerback 5.78742 -2.72106 -0.326327
upperback 1.74023 -3.39634 3.62162
thorax -1.20625 -1.62608 4.14121
lowerneck -12.5567 -6.98654 -14.8521
upperneck 14.3034 -7.76807 7.58129
head 7.35262 -3.88044 4.07262
rclavicle 1.04859e-014 -7.15625e-015
rhumerus -30.4136 -40.7003 -4.91
rradius 49.0939
rwrist -35.4447
rhand -21.7028 27.5811
rfingers 7.12502
rthumb 4.69578 -2.34685
lclavicle 1.04859e-014 -7.15625e-015
lhumerus -36.8324 41.1471 -5.84621
lradius 48.2564
lwrist 28.9269
lhand -5.92345 41.7263
lfingers 7.12502
lthumb 19.9059 70.7268
rfemur -13.3171 3.24446 18.1431
rtibia 31.4982
rfoot -14.5747 -6.30988
rtoes 3.35478
lfemur -8.99742 12.3001 -6.20033
ltibia 41.6623
lfoot -14.5399 16.3337
ltoes -23.2153
401
root 7.20534 17.6722 10.1242 -177.314 8.30957 -174.647
lowerback 5.7803 -2.7217 -0.0339727
upperback 1.62978 -3.36922 3.74307
thorax -1.3281 -1.60751 4.10461
lowerneck -11.9635 -7.08904 -14.065
upperneck 14.0002 -7.90032 6.26947
head 7.08095 -4.01214 3.50977
rclavicle 2.66123e-014 -7.35503e-015
rhumerus -31.103 -40.1181 -4.93399
rradius 49.7311
rwrist -35.033
rhand -21.818 27.9066
rfingers 7.12502
rthumb 4.5845 -2.02381
lclavicle 2.66123e-014 -7.35503e-015
lhumerus -37.7377 40.8916 -5.88003
lradius 49.2635
lwrist 29.4035
lhand -5.37704 41.9245
lfingers 7.12502
lthumb 20.4311 70.8696
rfemur -13.2312 3.57851 18.2351
rtibia 31.1359
rfoot -14.4489 -6.62871
rtoes 2.92857
lfemur -9.00213 12.4126 -6.23818
ltibia 41.703
lfoot -14.5167 16.6886
ltoes -23.4854
